<svg xmlns="http://www.w3.org/2000/svg" style="enable-background:new 0 0 31 68.2" viewBox="0 0 68.2 68.2"><defs><style type="text/css">.st0{fill:#535aa7}.st0,.st1,.st2,.st3{fill-rule:evenodd;clip-rule:evenodd}.st1{fill:#1c164e}.st2{fill:#347798}.st3{fill:#294a76}</style></defs><g transform="matrix(1, 0, 0, 1, 18.761539, -0.319594)"><g id="Layer_1-2"><path d="M17.2,43.9v22c0,1.2-0.7,1.7-1.6,1.2L3.2,60.3c-1-0.7-1.6-1.8-1.6-3V35.8c0.2,0.1,0.4,0.3,0.6,0.4L17.2,43.9z" class="st0"/><path d="M2.9,33.4l24.9-12.8c0.8-0.5,1.3-1.4,1.4-2.4V2.7c0-1-0.6-1.4-1.4-1l-23,11.8c-2.4,1.3-3.5,1.9-3.3,4.6v14.4 C1.5,33.3,2.2,33.8,2.9,33.4z" class="st1"/><path d="M2.9,15.6l24.9,12.8c0.8,0.5,1.3,1.4,1.4,2.4v15.5c0,1-0.6,1.4-1.4,1L2.9,34.6c-0.8-0.5-1.4-1.4-1.4-2.4V16.6 C1.5,15.7,2.2,15.2,2.9,15.6z" class="st2"/><path d="M2.9,33.4l17.3-8.9L2.9,15.6c-0.3-0.2-0.7-0.2-1,0c-0.3,0.5-0.4,1-0.4,1.5v15.1c0,0.3,0.1,0.7,0.2,1 C2,33.5,2.5,33.7,2.9,33.4C2.9,33.4,2.9,33.4,2.9,33.4z" class="st3"/></g></g></svg>